<svg width="32" height="32" viewBox="0 0 32 32" fill="none" xmlns="http://www.w3.org/2000/svg">
<g clip-path="url(#clip0_1_663)">
<path d="M32 16C32 7.16344 24.8366 0 16 0C7.16344 0 0 7.16344 0 16C0 24.8366 7.16344 32 16 32C24.8366 32 32 24.8366 32 16Z" fill="white"/>
<path d="M16.0001 13.5V16.8334M16.0001 20.1667H16.0084M14.5334 9.29755L7.5151 21.0142C7.37049 21.2648 7.294 21.5489 7.29322 21.8382C7.29244 22.1275 7.3674 22.412 7.51065 22.6633C7.6539 22.9147 7.86045 23.1242 8.10976 23.271C8.35908 23.4178 8.64247 23.4967 8.93176 23.5H22.9693C23.2586 23.4967 23.542 23.4178 23.7913 23.271C24.0406 23.1242 24.2471 22.9147 24.3904 22.6633C24.5336 22.412 24.6086 22.1275 24.6078 21.8382C24.607 21.5489 24.5305 21.2648 24.3859 21.0142L17.3668 9.29755C17.219 9.0542 17.011 8.85304 16.7628 8.71343C16.5147 8.57383 16.2348 8.50049 15.9501 8.50049C15.6654 8.50049 15.3855 8.57383 15.1373 8.71343C14.8892 8.85304 14.6812 9.0542 14.5334 9.29755Z" stroke="#232323" stroke-linecap="round" stroke-linejoin="round"/>
</g>
<defs>
<clipPath id="clip0_1_663">
<rect width="32" height="32" fill="white"/>
</clipPath>
</defs>
</svg>
